<mxfile host="app.diagrams.net" agent="Mozilla/5.0 (Windows NT 10.0; Win64; x64) AppleWebKit/537.36 (KHTML, like Gecko) Chrome/131.0.0.0 Safari/537.36 Edg/131.0.0.0" version="25.0.3">
  <diagram name="第 1 页" id="XNsjPg5f9j0rWt5qsapj">
    <mxGraphModel dx="960" dy="580" grid="1" gridSize="10" guides="1" tooltips="1" connect="1" arrows="1" fold="1" page="1" pageScale="1" pageWidth="827" pageHeight="1169" math="0" shadow="0">
      <root>
        <mxCell id="0" />
        <mxCell id="1" parent="0" />
        <mxCell id="uQMdQMKzk29S17rsnYwb-10" style="edgeStyle=orthogonalEdgeStyle;rounded=0;orthogonalLoop=1;jettySize=auto;html=1;exitX=1;exitY=0.5;exitDx=0;exitDy=0;entryX=0;entryY=0.5;entryDx=0;entryDy=0;" edge="1" parent="1" source="uQMdQMKzk29S17rsnYwb-1" target="uQMdQMKzk29S17rsnYwb-9">
          <mxGeometry relative="1" as="geometry" />
        </mxCell>
        <mxCell id="uQMdQMKzk29S17rsnYwb-11" value="webhook" style="edgeLabel;html=1;align=center;verticalAlign=middle;resizable=0;points=[];" vertex="1" connectable="0" parent="uQMdQMKzk29S17rsnYwb-10">
          <mxGeometry x="0.0144" y="-2" relative="1" as="geometry">
            <mxPoint y="-2" as="offset" />
          </mxGeometry>
        </mxCell>
        <mxCell id="uQMdQMKzk29S17rsnYwb-1" value="Kylinos-Src" style="rounded=1;whiteSpace=wrap;html=1;" vertex="1" parent="1">
          <mxGeometry x="384" y="210" width="120" height="60" as="geometry" />
        </mxCell>
        <mxCell id="uQMdQMKzk29S17rsnYwb-3" style="edgeStyle=orthogonalEdgeStyle;rounded=0;orthogonalLoop=1;jettySize=auto;html=1;exitX=1;exitY=0.5;exitDx=0;exitDy=0;" edge="1" parent="1" source="uQMdQMKzk29S17rsnYwb-2" target="uQMdQMKzk29S17rsnYwb-1">
          <mxGeometry relative="1" as="geometry" />
        </mxCell>
        <mxCell id="uQMdQMKzk29S17rsnYwb-8" value="PR" style="edgeLabel;html=1;align=center;verticalAlign=middle;resizable=0;points=[];" vertex="1" connectable="0" parent="uQMdQMKzk29S17rsnYwb-3">
          <mxGeometry x="-0.1078" relative="1" as="geometry">
            <mxPoint as="offset" />
          </mxGeometry>
        </mxCell>
        <mxCell id="uQMdQMKzk29S17rsnYwb-2" value="个人仓库" style="rounded=1;whiteSpace=wrap;html=1;" vertex="1" parent="1">
          <mxGeometry x="160" y="210" width="120" height="60" as="geometry" />
        </mxCell>
        <mxCell id="uQMdQMKzk29S17rsnYwb-6" style="edgeStyle=orthogonalEdgeStyle;rounded=0;orthogonalLoop=1;jettySize=auto;html=1;exitX=0.5;exitY=0;exitDx=0;exitDy=0;exitPerimeter=0;entryX=0.5;entryY=1;entryDx=0;entryDy=0;" edge="1" parent="1" source="uQMdQMKzk29S17rsnYwb-4" target="uQMdQMKzk29S17rsnYwb-2">
          <mxGeometry relative="1" as="geometry" />
        </mxCell>
        <mxCell id="uQMdQMKzk29S17rsnYwb-7" value="commit" style="edgeLabel;html=1;align=center;verticalAlign=middle;resizable=0;points=[];" vertex="1" connectable="0" parent="uQMdQMKzk29S17rsnYwb-6">
          <mxGeometry x="0.0037" y="2" relative="1" as="geometry">
            <mxPoint as="offset" />
          </mxGeometry>
        </mxCell>
        <mxCell id="uQMdQMKzk29S17rsnYwb-4" value="研发" style="shape=umlActor;verticalLabelPosition=bottom;verticalAlign=top;html=1;outlineConnect=0;" vertex="1" parent="1">
          <mxGeometry x="205" y="390" width="30" height="60" as="geometry" />
        </mxCell>
        <mxCell id="uQMdQMKzk29S17rsnYwb-19" style="edgeStyle=orthogonalEdgeStyle;rounded=0;orthogonalLoop=1;jettySize=auto;html=1;exitX=0.5;exitY=1;exitDx=0;exitDy=0;entryX=0.5;entryY=0;entryDx=0;entryDy=0;" edge="1" parent="1" source="uQMdQMKzk29S17rsnYwb-9" target="uQMdQMKzk29S17rsnYwb-13">
          <mxGeometry relative="1" as="geometry" />
        </mxCell>
        <mxCell id="uQMdQMKzk29S17rsnYwb-9" value="门禁检查" style="rounded=1;whiteSpace=wrap;html=1;" vertex="1" parent="1">
          <mxGeometry x="610" y="210" width="120" height="60" as="geometry" />
        </mxCell>
        <mxCell id="uQMdQMKzk29S17rsnYwb-20" style="edgeStyle=orthogonalEdgeStyle;rounded=0;orthogonalLoop=1;jettySize=auto;html=1;exitX=0;exitY=0.5;exitDx=0;exitDy=0;entryX=1;entryY=0.5;entryDx=0;entryDy=0;" edge="1" parent="1" source="uQMdQMKzk29S17rsnYwb-13" target="uQMdQMKzk29S17rsnYwb-14">
          <mxGeometry relative="1" as="geometry" />
        </mxCell>
        <mxCell id="uQMdQMKzk29S17rsnYwb-24" value="通过" style="edgeLabel;html=1;align=center;verticalAlign=middle;resizable=0;points=[];" vertex="1" connectable="0" parent="uQMdQMKzk29S17rsnYwb-20">
          <mxGeometry x="-0.0813" y="1" relative="1" as="geometry">
            <mxPoint as="offset" />
          </mxGeometry>
        </mxCell>
        <mxCell id="uQMdQMKzk29S17rsnYwb-13" value="检查通过？" style="rhombus;whiteSpace=wrap;html=1;" vertex="1" parent="1">
          <mxGeometry x="610" y="320" width="120" height="80" as="geometry" />
        </mxCell>
        <mxCell id="uQMdQMKzk29S17rsnYwb-17" style="edgeStyle=orthogonalEdgeStyle;rounded=0;orthogonalLoop=1;jettySize=auto;html=1;exitX=0.5;exitY=0;exitDx=0;exitDy=0;entryX=0.5;entryY=1;entryDx=0;entryDy=0;" edge="1" parent="1" source="uQMdQMKzk29S17rsnYwb-14" target="uQMdQMKzk29S17rsnYwb-1">
          <mxGeometry relative="1" as="geometry" />
        </mxCell>
        <mxCell id="uQMdQMKzk29S17rsnYwb-18" value="merge" style="edgeLabel;html=1;align=center;verticalAlign=middle;resizable=0;points=[];" vertex="1" connectable="0" parent="uQMdQMKzk29S17rsnYwb-17">
          <mxGeometry x="0.123" y="-4" relative="1" as="geometry">
            <mxPoint x="-4" as="offset" />
          </mxGeometry>
        </mxCell>
        <mxCell id="uQMdQMKzk29S17rsnYwb-14" value="人工审核" style="rounded=1;whiteSpace=wrap;html=1;" vertex="1" parent="1">
          <mxGeometry x="384" y="330" width="120" height="60" as="geometry" />
        </mxCell>
        <mxCell id="uQMdQMKzk29S17rsnYwb-16" style="edgeStyle=orthogonalEdgeStyle;rounded=0;orthogonalLoop=1;jettySize=auto;html=1;exitX=0.5;exitY=0;exitDx=0;exitDy=0;exitPerimeter=0;entryX=0.5;entryY=1;entryDx=0;entryDy=0;" edge="1" parent="1" source="uQMdQMKzk29S17rsnYwb-15" target="uQMdQMKzk29S17rsnYwb-14">
          <mxGeometry relative="1" as="geometry" />
        </mxCell>
        <mxCell id="uQMdQMKzk29S17rsnYwb-15" value="Maintainer" style="shape=umlActor;verticalLabelPosition=bottom;verticalAlign=top;html=1;outlineConnect=0;" vertex="1" parent="1">
          <mxGeometry x="429" y="440" width="30" height="60" as="geometry" />
        </mxCell>
        <mxCell id="uQMdQMKzk29S17rsnYwb-21" style="rounded=0;orthogonalLoop=1;jettySize=auto;html=1;exitX=0;exitY=0.5;exitDx=0;exitDy=0;entryX=0.75;entryY=0.1;entryDx=0;entryDy=0;entryPerimeter=0;" edge="1" parent="1" source="uQMdQMKzk29S17rsnYwb-14" target="uQMdQMKzk29S17rsnYwb-4">
          <mxGeometry relative="1" as="geometry" />
        </mxCell>
        <mxCell id="uQMdQMKzk29S17rsnYwb-23" value="修改" style="edgeLabel;html=1;align=center;verticalAlign=middle;resizable=0;points=[];" vertex="1" connectable="0" parent="uQMdQMKzk29S17rsnYwb-21">
          <mxGeometry x="-0.1025" relative="1" as="geometry">
            <mxPoint as="offset" />
          </mxGeometry>
        </mxCell>
        <mxCell id="uQMdQMKzk29S17rsnYwb-26" style="edgeStyle=orthogonalEdgeStyle;rounded=0;orthogonalLoop=1;jettySize=auto;html=1;exitX=0.5;exitY=1;exitDx=0;exitDy=0;entryX=0;entryY=1;entryDx=0;entryDy=0;entryPerimeter=0;" edge="1" parent="1" source="uQMdQMKzk29S17rsnYwb-13" target="uQMdQMKzk29S17rsnYwb-4">
          <mxGeometry relative="1" as="geometry">
            <Array as="points">
              <mxPoint x="670" y="530" />
              <mxPoint x="210" y="530" />
              <mxPoint x="210" y="450" />
            </Array>
          </mxGeometry>
        </mxCell>
        <mxCell id="uQMdQMKzk29S17rsnYwb-27" value="未通过" style="edgeLabel;html=1;align=center;verticalAlign=middle;resizable=0;points=[];" vertex="1" connectable="0" parent="uQMdQMKzk29S17rsnYwb-26">
          <mxGeometry x="0.0653" y="-2" relative="1" as="geometry">
            <mxPoint as="offset" />
          </mxGeometry>
        </mxCell>
      </root>
    </mxGraphModel>
  </diagram>
</mxfile>
